<svg width="192" height="58" viewBox="0 0 192 58" fill="none"
    xmlns="http://www.w3.org/2000/svg">
    <path d="M75.152 27.192C73.7653 27.192 72.4853 26.9467 71.312 26.456C70.1387 25.9653 69.2 25.1653 68.496 24.056C67.8133 22.9467 67.472 21.4747 67.472 19.64V11.16C67.472 9.32533 67.8133 7.85333 68.496 6.744C69.2 5.63467 70.1387 4.83467 71.312 4.344C72.4853 3.85333 73.7653 3.608 75.152 3.608C76.688 3.608 78.0533 3.864 79.248 4.376C80.464 4.86667 81.424 5.58133 82.128 6.52C82.832 7.45867 83.184 8.61067 83.184 9.976C83.184 10.936 82.9813 11.576 82.576 11.896C82.1707 12.1947 81.5413 12.344 80.688 12.344C80.0267 12.344 79.4507 12.2373 78.96 12.024C78.4907 11.8107 78.2347 11.416 78.192 10.84C78.192 10.6267 78.16 10.36 78.096 10.04C78.0533 9.72 77.9467 9.4 77.776 9.08C77.6053 8.76 77.328 8.49333 76.944 8.28C76.56 8.06667 76.0267 7.96 75.344 7.96C74.4267 7.96 73.712 8.22667 73.2 8.76C72.7093 9.272 72.464 10.072 72.464 11.16V19.64C72.464 20.728 72.72 21.5387 73.232 22.072C73.744 22.584 74.4587 22.84 75.376 22.84C76.016 22.84 76.5173 22.7333 76.88 22.52C77.264 22.3067 77.5413 22.04 77.712 21.72C77.8827 21.3787 78 21.0267 78.064 20.664C78.128 20.3013 78.1707 19.96 78.192 19.64C78.2347 19.0427 78.4907 18.648 78.96 18.456C79.4507 18.2427 80.016 18.136 80.656 18.136C81.5307 18.136 82.1707 18.296 82.576 18.616C82.9813 18.9147 83.184 19.544 83.184 20.504C83.184 21.912 82.832 23.1173 82.128 24.12C81.424 25.1227 80.464 25.8907 79.248 26.424C78.0533 26.936 76.688 27.192 75.152 27.192ZM87.8728 27C87.3394 27 86.8381 26.872 86.3688 26.616C85.9208 26.36 85.6968 25.976 85.6968 25.464V5.144C85.6968 4.632 85.9208 4.248 86.3688 3.992C86.8381 3.736 87.3394 3.608 87.8728 3.608H99.2648C99.7981 3.608 100.182 3.84267 100.417 4.312C100.651 4.76 100.769 5.24 100.769 5.752C100.769 6.34933 100.641 6.872 100.385 7.32C100.129 7.74667 99.7554 7.96 99.2648 7.96H90.6888V13.368H95.4888C95.9794 13.368 96.3528 13.5707 96.6088 13.976C96.8648 14.36 96.9928 14.808 96.9928 15.32C96.9928 15.7467 96.8754 16.1733 96.6408 16.6C96.4061 17.0053 96.0221 17.208 95.4888 17.208H90.6888V22.648H99.2648C99.7554 22.648 100.129 22.872 100.385 23.32C100.641 23.7467 100.769 24.2587 100.769 24.856C100.769 25.368 100.651 25.8587 100.417 26.328C100.182 26.776 99.7981 27 99.2648 27H87.8728ZM105.443 27C104.824 27 104.248 26.872 103.715 26.616C103.203 26.36 102.947 25.976 102.947 25.464V5.144C102.947 4.61067 103.203 4.22667 103.715 3.992C104.248 3.736 104.824 3.608 105.443 3.608C106.04 3.608 106.531 3.66133 106.915 3.768C107.32 3.85333 107.683 4.06667 108.003 4.408C108.344 4.74933 108.717 5.31466 109.123 6.104L114.307 15.992V5.112C114.307 4.57867 114.563 4.19467 115.075 3.96C115.608 3.72533 116.184 3.608 116.803 3.608C117.421 3.608 117.987 3.72533 118.499 3.96C119.032 4.19467 119.299 4.57867 119.299 5.112V25.464C119.299 25.976 119.032 26.36 118.499 26.616C117.987 26.872 117.421 27 116.803 27C116.227 27 115.693 26.9147 115.203 26.744C114.712 26.5733 114.317 26.2107 114.019 25.656L107.939 14.584V25.464C107.939 25.976 107.672 26.36 107.139 26.616C106.627 26.872 106.061 27 105.443 27ZM129.703 27C129.085 27 128.509 26.872 127.975 26.616C127.463 26.36 127.207 25.976 127.207 25.464V8.088H122.791C122.322 8.088 121.949 7.864 121.671 7.416C121.415 6.94667 121.287 6.41333 121.287 5.816C121.287 5.28267 121.405 4.78133 121.639 4.312C121.874 3.84267 122.258 3.608 122.791 3.608H136.615C137.149 3.608 137.533 3.84267 137.767 4.312C138.002 4.78133 138.119 5.28267 138.119 5.816C138.119 6.41333 137.991 6.94667 137.735 7.416C137.479 7.864 137.106 8.088 136.615 8.088H132.199V25.464C132.199 25.976 131.933 26.36 131.399 26.616C130.887 26.872 130.322 27 129.703 27ZM153.191 27.192C152.871 27.192 152.562 27.128 152.263 27C151.986 26.8507 151.762 26.6053 151.591 26.264L147.207 17.752H145.095V25.464C145.095 25.976 144.828 26.36 144.295 26.616C143.783 26.872 143.218 27 142.599 27C141.98 27 141.404 26.872 140.871 26.616C140.359 26.36 140.103 25.976 140.103 25.464V5.112C140.103 4.70667 140.242 4.35467 140.519 4.056C140.796 3.75733 141.17 3.608 141.639 3.608H148.263C149.735 3.608 151.058 3.82133 152.231 4.248C153.426 4.65333 154.375 5.35733 155.079 6.36C155.783 7.34133 156.135 8.70667 156.135 10.456C156.135 11.6507 155.964 12.6853 155.623 13.56C155.303 14.4133 154.844 15.1173 154.247 15.672C153.671 16.2267 153.01 16.6533 152.263 16.952L156.167 24.024C156.231 24.1093 156.274 24.2053 156.295 24.312C156.316 24.4187 156.327 24.5147 156.327 24.6C156.327 25.0053 156.167 25.4107 155.847 25.816C155.527 26.2213 155.122 26.552 154.631 26.808C154.162 27.064 153.682 27.192 153.191 27.192ZM145.095 13.912H148.263C149.159 13.912 149.863 13.6987 150.375 13.272C150.887 12.824 151.143 12.0453 151.143 10.936C151.143 9.80533 150.887 9.02667 150.375 8.6C149.863 8.17333 149.159 7.96 148.263 7.96H145.095V13.912ZM160.391 27C159.943 27 159.463 26.9147 158.951 26.744C158.46 26.552 158.044 26.3067 157.703 26.008C157.361 25.688 157.191 25.336 157.191 24.952C157.191 24.888 157.212 24.7707 157.255 24.6L163.207 5.08C163.377 4.52533 163.783 4.10933 164.423 3.832C165.063 3.55467 165.745 3.416 166.47 3.416C167.217 3.416 167.9 3.55467 168.519 3.832C169.159 4.10933 169.564 4.52533 169.735 5.08L175.719 24.6C175.761 24.7707 175.783 24.888 175.783 24.952C175.783 25.336 175.612 25.688 175.271 26.008C174.929 26.3067 174.513 26.552 174.023 26.744C173.532 26.9147 173.052 27 172.583 27C172.177 27 171.825 26.936 171.527 26.808C171.249 26.6587 171.057 26.4133 170.951 26.072L169.863 22.072H163.111L162.023 26.072C161.937 26.4133 161.745 26.6587 161.447 26.808C161.148 26.936 160.796 27 160.391 27ZM164.135 18.232H168.807L166.47 9.656L164.135 18.232ZM179.81 27C179.277 27 178.776 26.872 178.306 26.616C177.858 26.36 177.634 25.976 177.634 25.464V5.112C177.634 4.57867 177.89 4.19467 178.402 3.96C178.936 3.72533 179.512 3.608 180.13 3.608C180.749 3.608 181.314 3.72533 181.826 3.96C182.36 4.19467 182.626 4.57867 182.626 5.112V22.648H189.922C190.413 22.648 190.776 22.872 191.01 23.32C191.245 23.768 191.362 24.2693 191.362 24.824C191.362 25.3573 191.245 25.8587 191.01 26.328C190.776 26.776 190.413 27 189.922 27H179.81ZM70.224 56C69.6053 56 69.0293 55.872 68.496 55.616C67.984 55.36 67.728 54.976 67.728 54.464V34.112C67.728 33.5787 67.984 33.1947 68.496 32.96C69.0293 32.7253 69.6053 32.608 70.224 32.608C70.8427 32.608 71.408 32.7253 71.92 32.96C72.4533 33.1947 72.72 33.5787 72.72 34.112V41.952H79.088V34.112C79.088 33.5787 79.344 33.1947 79.856 32.96C80.3893 32.7253 80.9653 32.608 81.584 32.608C82.2027 32.608 82.768 32.7253 83.28 32.96C83.8133 33.1947 84.08 33.5787 84.08 34.112V54.464C84.08 54.976 83.8133 55.36 83.28 55.616C82.768 55.872 82.2027 56 81.584 56C80.9653 56 80.3893 55.872 79.856 55.616C79.344 55.36 79.088 54.976 79.088 54.464V45.792H72.72V54.464C72.72 54.976 72.4533 55.36 71.92 55.616C71.408 55.872 70.8427 56 70.224 56ZM94.1325 56.32C92.7458 56.32 91.4658 56.1173 90.2925 55.712C89.1192 55.3067 88.1805 54.7947 87.4765 54.176C86.7725 53.536 86.4205 52.864 86.4205 52.16C86.4205 51.7973 86.5165 51.4133 86.7085 51.008C86.9005 50.5813 87.1565 50.2187 87.4765 49.92C87.8178 49.6213 88.1912 49.472 88.5965 49.472C88.9805 49.472 89.3325 49.5893 89.6525 49.824C89.9938 50.0587 90.3565 50.336 90.7405 50.656C91.1458 50.976 91.6045 51.2533 92.1165 51.488C92.6498 51.7227 93.2898 51.84 94.0365 51.84C94.5272 51.84 95.0072 51.776 95.4765 51.648C95.9672 51.4987 96.3618 51.2747 96.6605 50.976C96.9805 50.656 97.1405 50.24 97.1405 49.728C97.1405 49.1733 96.9592 48.704 96.5965 48.32C96.2338 47.9147 95.7432 47.552 95.1245 47.232C94.5272 46.912 93.8658 46.592 93.1405 46.272C92.4365 45.9307 91.7218 45.568 90.9965 45.184C90.2712 44.7787 89.5992 44.3093 88.9805 43.776C88.3832 43.2213 87.9032 42.56 87.5405 41.792C87.1778 41.024 86.9965 40.1067 86.9965 39.04C86.9965 37.8453 87.2312 36.832 87.7005 36C88.1698 35.1467 88.7992 34.464 89.5885 33.952C90.3778 33.4187 91.2525 33.0347 92.2125 32.8C93.1938 32.544 94.1858 32.416 95.1885 32.416C95.6152 32.416 96.1805 32.448 96.8845 32.512C97.5885 32.576 98.2925 32.704 98.9965 32.896C99.7218 33.088 100.33 33.376 100.821 33.76C101.311 34.1227 101.557 34.6133 101.557 35.232C101.557 35.5093 101.482 35.8613 101.333 36.288C101.205 36.6933 100.991 37.056 100.693 37.376C100.415 37.696 100.042 37.856 99.5725 37.856C99.1885 37.856 98.8258 37.76 98.4845 37.568C98.1645 37.3547 97.7485 37.152 97.2365 36.96C96.7458 36.7467 96.0632 36.64 95.1885 36.64C94.4418 36.64 93.8232 36.736 93.3325 36.928C92.8632 37.0987 92.5218 37.3333 92.3085 37.632C92.0952 37.9093 91.9885 38.2187 91.9885 38.56C91.9885 39.008 92.1698 39.4027 92.5325 39.744C92.8952 40.064 93.3752 40.3733 93.9725 40.672C94.5912 40.9493 95.2525 41.248 95.9565 41.568C96.6818 41.8667 97.4072 42.2293 98.1325 42.656C98.8578 43.0613 99.5192 43.552 100.117 44.128C100.735 44.704 101.226 45.408 101.589 46.24C101.951 47.072 102.133 48.064 102.133 49.216C102.133 50.752 101.781 52.0533 101.077 53.12C100.394 54.1653 99.4552 54.9653 98.2605 55.52C97.0658 56.0533 95.6898 56.32 94.1325 56.32ZM114.644 56C114.026 56 113.45 55.872 112.916 55.616C112.404 55.36 112.148 54.976 112.148 54.464V51.072H104.66C104.191 51.072 103.796 50.9227 103.476 50.624C103.156 50.3253 102.996 49.8987 102.996 49.344C102.996 49.216 103.018 49.0667 103.06 48.896C103.103 48.7253 103.167 48.5547 103.252 48.384L110.644 33.888C110.879 33.4187 111.178 33.088 111.54 32.896C111.924 32.704 112.319 32.608 112.724 32.608C113.023 32.608 113.364 32.6827 113.748 32.832C114.132 32.9813 114.474 33.2053 114.772 33.504C115.071 33.7813 115.22 34.112 115.22 34.496C115.22 34.6453 115.167 34.848 115.06 35.104L109.396 46.464H112.148V44.224C112.148 43.6907 112.404 43.3067 112.916 43.072C113.45 42.8373 114.026 42.72 114.644 42.72C115.263 42.72 115.828 42.8373 116.34 43.072C116.874 43.3067 117.14 43.6907 117.14 44.224V46.464H118.516C119.028 46.464 119.412 46.7093 119.668 47.2C119.924 47.6693 120.052 48.192 120.052 48.768C120.052 49.344 119.892 49.8773 119.572 50.368C119.252 50.8373 118.9 51.072 118.516 51.072H117.14V54.464C117.14 54.976 116.874 55.36 116.34 55.616C115.828 55.872 115.263 56 114.644 56ZM124.193 56C123.574 56 122.998 55.872 122.465 55.616C121.953 55.36 121.697 54.976 121.697 54.464V34.112C121.697 33.5787 121.953 33.1947 122.465 32.96C122.998 32.7253 123.574 32.608 124.193 32.608C124.811 32.608 125.377 32.7253 125.889 32.96C126.422 33.1947 126.689 33.5787 126.689 34.112V41.952H133.057V34.112C133.057 33.5787 133.313 33.1947 133.825 32.96C134.358 32.7253 134.934 32.608 135.553 32.608C136.171 32.608 136.737 32.7253 137.249 32.96C137.782 33.1947 138.049 33.5787 138.049 34.112V54.464C138.049 54.976 137.782 55.36 137.249 55.616C136.737 55.872 136.171 56 135.553 56C134.934 56 134.358 55.872 133.825 55.616C133.313 55.36 133.057 54.976 133.057 54.464V45.792H126.689V54.464C126.689 54.976 126.422 55.36 125.889 55.616C125.377 55.872 124.811 56 124.193 56Z" fill="black"/>
    <path d="M21.6441 44.88C20.9774 44.88 20.2974 44.6933 19.6041 44.32C18.9374 43.92 18.6041 43.3467 18.6041 42.6L19.4841 37.72H16.6841C16.1774 37.72 15.7641 37.52 15.4441 37.12C15.1507 36.6933 15.0041 36.1467 15.0041 35.48C15.0041 34.8133 15.1641 34.2533 15.4841 33.8C15.8041 33.3467 16.2174 33.12 16.7241 33.12H20.4041L21.2441 28.8H18.4041C17.8974 28.8 17.4841 28.6 17.1641 28.2C16.8707 27.7733 16.7241 27.2267 16.7241 26.56C16.7241 25.8933 16.8841 25.3333 17.2041 24.88C17.5241 24.4267 17.9374 24.2 18.4441 24.2H22.1641L23.2041 18.76C23.2841 18.36 23.5907 18.0533 24.1241 17.84C24.6574 17.6 25.2174 17.48 25.8041 17.48C26.4974 17.48 27.1374 17.6533 27.7241 18C28.3107 18.32 28.6041 18.9067 28.6041 19.76L27.7641 24.2H31.8841L32.9241 18.76C33.0041 18.36 33.3107 18.0533 33.8441 17.84C34.3774 17.6 34.9374 17.48 35.5241 17.48C36.2174 17.48 36.8574 17.6533 37.4441 18C38.0307 18.32 38.3374 18.9067 38.3641 19.76L37.4841 24.2H40.2841C40.7374 24.2 41.1374 24.4267 41.4841 24.88C41.8307 25.3067 42.0041 25.84 42.0041 26.48C42.0041 27.1467 41.8174 27.7067 41.4441 28.16C41.0974 28.5867 40.6974 28.8 40.2441 28.8H36.6441L35.7641 33.12H38.5641C39.0174 33.12 39.4174 33.3467 39.7641 33.8C40.1374 34.2267 40.3241 34.76 40.3241 35.4C40.3241 36.0933 40.1374 36.6533 39.7641 37.08C39.3907 37.5067 38.9774 37.72 38.5241 37.72H34.8841L33.7641 43.52C33.6841 43.8933 33.3907 44.2133 32.8841 44.48C32.3774 44.7467 31.8707 44.88 31.3641 44.88C30.9374 44.88 30.4841 44.8 30.0041 44.64C29.5241 44.4533 29.1107 44.2 28.7641 43.88C28.4441 43.5333 28.2841 43.1067 28.2841 42.6L29.2041 37.72H25.1641L24.0441 43.52C23.9641 43.8933 23.6574 44.2133 23.1241 44.48C22.6174 44.7467 22.1241 44.88 21.6441 44.88ZM26.0441 33.12H30.1241L30.9641 28.8H26.8841L26.0441 33.12Z" fill="black"/>
    <rect x="2.5" y="4.5" width="52" height="51" rx="5.5" stroke="black" stroke-width="5"/>
</svg>
