<svg width="206" height="39" viewBox="0 0 206 39" fill="none" xmlns="http://www.w3.org/2000/svg">
<path d="M15.04 25.716L11.26 15.6L8.632 30H2.62L6.04 10.272L0.568 4.692H13.132L16.804 15.096L23.824 4.692H30.016L25.624 30H19.504L22.06 15.6L15.04 25.716ZM38.609 4.692H46.745L48.293 30H41.669V25.104H36.521L34.829 30H28.025L38.609 4.692ZM41.669 20.784V11.712H41.129L37.997 20.784H41.669ZM50.0458 30L54.4378 4.692H60.6658L56.2378 30H50.0458ZM70.9213 4.692L75.3133 17.796L77.6173 4.692H83.5213L79.0933 30H73.1173L69.0133 17.112L66.6013 30H60.7333L65.1253 4.692H70.9213ZM111.296 4.692L110.252 11.064H103.844C101.684 12.324 99.2004 14.556 99.2004 18.156C99.2004 21.9 100.46 23.052 101.612 23.7H107.804L106.688 30H100.028C95.3844 28.236 93.0084 24.024 93.0084 18.768C93.0084 16.248 93.8364 13.044 95.8524 10.272L90.3804 4.692H111.296ZM122.569 30L124.297 19.992H118.681L116.917 30H110.761L115.153 4.692H121.345L119.689 13.944H125.341L126.961 4.692H133.261L128.833 30H122.569ZM141.828 4.692H149.964L151.512 30H144.888V25.104H139.74L138.048 30H131.244L141.828 4.692ZM144.888 20.784V11.712H144.348L141.216 20.784H144.888ZM153.265 30L157.657 4.692H163.885L159.457 30H153.265ZM174.14 4.692L178.532 17.796L180.836 4.692H186.74L182.312 30H176.336L172.232 17.112L169.82 30H163.952L168.344 4.692H174.14ZM186.156 30L186.912 25.536L196.992 10.56H189.612L190.548 4.692H205.884L205.236 9.12L195.012 24.132H202.536L201.636 30H186.156Z" fill="black"/>
<path d="M1 33H201L200.005 39H6.88235L1 33Z" fill="#651FFF"/>
<path d="M1 33H201L200.005 39H6.88235L1 33Z" fill="#651FFF"/>
</svg>
