<svg width="83" height="72" viewBox="0 0 83 72" fill="none"
    xmlns="http://www.w3.org/2000/svg">
    <path d="M80.4193 22.5724L81.9469 18.8271C81.9469 18.8271 80.025 16.7574 77.6596 14.392C75.2942 12.0265 70.3169 13.4064 70.3169 13.4064L64.6497 7H54.6952H44.6914L39.0243 13.4556C39.0243 13.4556 34.047 12.0758 31.6816 14.4412C29.3161 16.8067 27.3942 18.8764 27.3942 18.8764L28.9219 22.6217L27 28.141C27 28.141 32.7165 49.7255 33.3571 52.3867C34.6876 57.561 35.5747 59.5815 39.3199 62.2426C43.0652 64.9037 49.8165 69.4375 50.95 70.1274C52.0341 70.8173 53.4632 72 54.6952 72C55.9272 72 57.3071 70.8173 58.4405 70.1274C59.5246 69.4375 66.3252 64.8544 70.0705 62.2426C73.8158 59.6308 74.7028 57.6103 76.0334 52.3867C76.7233 49.7255 82.3905 28.141 82.3905 28.141L80.4193 22.5724Z" fill="#FF5500"/>
    <path d="M68.74 17.5459C68.74 17.5459 76.0334 26.367 76.0334 28.2889C76.0334 30.2108 75.097 30.6543 74.1607 31.6399C73.2244 32.6255 69.1835 36.9128 68.6907 37.4549C68.1486 37.997 67.1137 38.8347 67.7051 40.3624C68.3457 41.8408 69.282 43.7627 68.2472 45.7339C67.2123 47.6558 65.4382 48.9864 64.3048 48.74C63.1713 48.5429 60.461 47.1137 59.4754 46.4731C58.4898 45.8325 55.3851 43.2699 55.3851 42.2843C55.3851 41.2987 58.6376 39.5247 59.229 39.1304C59.8203 38.7362 62.5307 37.1592 62.58 36.5679C62.6293 35.9765 62.6293 35.7794 61.7915 34.2517C61.003 32.7241 59.5246 30.7036 59.771 29.373C60.0174 28.0425 62.3336 27.3526 64.0091 26.7119C65.6846 26.0713 68.8878 24.8886 69.282 24.6915C69.6763 24.4943 69.5777 24.3465 68.3457 24.1987C67.1137 24.1001 63.7134 23.6073 62.1365 24.0508C60.5595 24.4943 57.9477 25.135 57.7013 25.4799C57.5042 25.8249 57.3071 25.8249 57.5042 27.0569C57.7013 28.2396 58.884 34.0546 58.9826 35.0895C59.0811 36.1244 59.3275 36.8143 58.1941 37.0607C57.1099 37.3071 55.2373 37.7506 54.5967 37.7506C53.956 37.7506 52.0834 37.3071 50.9992 37.0607C49.9151 36.8143 50.1122 36.1244 50.2108 35.0895C50.3093 34.0546 51.4428 28.2889 51.6892 27.0569C51.8863 25.8742 51.7384 25.8249 51.492 25.4799C51.2949 25.135 48.6338 24.4943 47.0569 24.0508C45.4799 23.6073 42.0796 24.0508 40.8476 24.1987C39.6156 24.2972 39.5171 24.4943 39.9113 24.6915C40.3055 24.8886 43.5087 26.0713 45.1842 26.7119C46.8597 27.3526 49.1759 28.0425 49.4223 29.373C49.6687 30.7036 48.2396 32.7241 47.4018 34.2517C46.6133 35.7794 46.5641 35.9272 46.6133 36.5679C46.6626 37.1592 49.373 38.7362 49.9644 39.1304C50.5557 39.5247 53.8082 41.2987 53.8082 42.2843C53.8082 43.2699 50.7036 45.8325 49.718 46.4731C48.7324 47.1137 46.0713 48.4936 44.8885 48.74C43.7551 48.9371 41.981 47.6558 40.9462 45.7339C39.9113 43.812 40.8476 41.8901 41.4882 40.3624C42.1289 38.884 41.0447 38.0463 40.5027 37.4549C40.1084 36.8636 36.1168 32.5762 35.1804 31.6399C34.2441 30.6543 33.3571 30.1615 33.3571 28.2889C33.3571 26.4162 40.6505 17.5459 40.6505 17.5459C40.6505 17.5459 46.8105 18.7286 47.6482 18.7286C48.486 18.7286 50.26 18.0387 51.9356 17.4966C53.6111 16.9545 54.6952 16.9545 54.6952 16.9545C54.6952 16.9545 55.7794 16.9545 57.4549 17.4966C59.1304 18.0387 60.9045 18.7286 61.7422 18.7286C62.58 18.7286 68.74 17.5459 68.74 17.5459ZM63.2699 51.3025C63.7134 51.5982 63.467 52.1403 63.0235 52.3867C62.6293 52.6824 57.0606 56.9697 56.5679 57.4625C56.0258 57.9553 55.2373 58.6945 54.6952 58.6945C54.1531 58.6945 53.3647 57.906 52.8226 57.4625C52.2805 56.9697 46.7612 52.6824 46.3669 52.3867C45.9727 52.091 45.677 51.5489 46.1205 51.3025C46.5641 51.0068 47.9932 50.3169 49.9151 49.2821C51.8863 48.2472 54.301 47.4094 54.6952 47.4094C55.0895 47.4094 57.5042 48.2472 59.4754 49.2821C61.3973 50.3169 62.7771 51.0561 63.2699 51.3025Z" fill="white"/>
    <path d="M70.3169 13.4556L64.6497 7H54.6952H44.6914L39.0243 13.4556C39.0243 13.4556 34.047 12.0758 31.6816 14.4412C31.6816 14.4412 38.3343 13.8499 40.6012 17.5459C40.6012 17.5459 46.7612 18.7286 47.5989 18.7286C48.4367 18.7286 50.2108 18.0387 51.8863 17.4966C53.5618 16.9545 54.6459 16.9545 54.6459 16.9545C54.6459 16.9545 55.7301 16.9545 57.4056 17.4966C59.0811 18.0387 60.8552 18.7286 61.693 18.7286C62.5307 18.7286 68.6907 17.5459 68.6907 17.5459C70.9575 13.8499 77.6103 14.4412 77.6103 14.4412C75.2942 12.0758 70.3169 13.4556 70.3169 13.4556Z" fill="#FF452A"/>
    <g clip-path="url(#clip0_18_103)">
        <path d="M27.7993 5.38023L25.9004 12.9759C28.5905 7.59562 32.9421 3.56045 37.9268 0C34.2872 4.19342 30.9641 8.38683 28.9861 12.6594C32.3883 7.83299 36.9773 5.22199 42.1202 3.40221C35.2366 9.49453 29.7773 16.1407 25.663 22.7077L22.3399 21.2836C22.8938 15.9825 24.8718 10.6022 27.7993 5.38023Z" fill="#68B044"/>
        <path d="M19.0168 19.8594L25.2674 22.4704C25.2674 24.0528 25.1092 28.9583 26.1377 30.3825C36.5817 43.8331 34.8411 70.8925 24.0015 71.5255C7.54429 71.5255 1.2146 60.3694 1.2146 50.0837C1.2146 40.6682 12.4498 34.4968 19.1751 28.9583C20.9949 27.455 20.6784 24.1319 19.0168 19.8594Z" fill="#F5F8DE"/>
        <path d="M25.2674 22.3913L27.5619 23.5781C27.3245 25.0814 27.641 28.4045 29.1443 29.1957C35.7905 33.31 41.9619 37.7408 44.4147 42.2507C53.118 57.9957 38.3224 72.6331 25.4256 71.209C32.3883 66.0661 34.4454 55.4639 31.8344 43.8331C30.8059 39.3232 29.1443 35.2089 26.2168 30.5407C24.9509 28.4045 25.4256 25.5561 25.2674 22.3913Z" fill="#7E4798"/>
        <path d="M22.7355 29.9078C22.2608 32.3605 21.7069 36.7913 19.5706 38.4528C18.7003 39.0858 17.7509 39.7188 16.8014 40.3518C12.9245 42.9627 9.12667 45.4155 7.386 51.6661C6.9904 53.0111 7.30687 54.4353 7.62336 55.7804C8.57281 59.6573 11.2629 63.7716 13.3992 66.2243C13.3992 66.3035 13.7948 66.6199 13.7948 66.6991C15.5355 68.7562 16.0893 69.3892 22.7355 70.8925L22.5772 71.6046C18.5421 70.576 15.2981 69.5474 13.1618 67.1738C13.1618 67.0947 12.7662 66.7782 12.7662 66.7782C10.5508 64.2463 7.7816 59.9738 6.83215 55.9386C6.43654 54.3562 6.12007 53.0902 6.59479 51.4287C8.41458 44.9408 12.3706 42.3298 16.3267 39.6397C17.197 39.0858 18.3047 38.532 19.175 37.8199C20.9948 36.6331 21.8652 32.9144 22.7355 29.9078Z" fill="#010101"/>
        <path d="M24.4762 40.1935C24.5553 42.9627 24.2388 44.3869 24.9509 46.365C25.3465 47.5518 26.8498 49.1342 27.2454 50.7166C27.7993 52.7738 28.4322 55.0683 28.4322 56.4924C28.4322 58.0749 28.3531 61.0815 27.641 64.2463C27.0872 66.8573 25.9003 69.1518 23.8432 70.4178C21.7069 70.0221 19.2542 69.2309 17.83 67.965C14.9816 65.5122 12.5289 61.398 12.2124 57.8375C11.975 54.91 14.6652 50.5584 18.463 48.4221C21.6278 46.5232 22.419 44.466 23.1311 40.9847C22.1817 43.9913 21.2322 46.4441 18.1465 48.1056C13.6366 50.4792 11.3421 54.3562 11.5794 58.154C11.8959 62.9804 13.7948 66.2243 17.5926 68.8353C19.1751 69.943 22.1817 71.1298 24.0806 71.4463V71.209C25.5047 70.9716 27.3245 68.598 28.274 65.5123C29.0652 62.6639 29.3817 59.1034 29.3026 56.8089C29.2234 55.4639 28.6696 52.6155 27.5619 50.0045C27.0081 48.5803 26.0586 47.1562 25.5047 46.1276C24.7927 44.9408 24.7927 42.7254 24.4762 40.1935Z" fill="#010101"/>
        <path d="M24.0014 51.0331C24.0806 52.932 24.7927 55.3056 25.1091 57.7584C25.3465 59.5782 25.2674 61.3979 25.1883 62.9804C25.1091 64.8001 24.5553 68.1232 23.685 69.7848C22.8937 69.3892 22.5773 68.9936 22.0234 68.3606C21.3904 67.4903 20.9157 66.5408 20.5201 65.5122C20.2036 64.721 19.808 63.7716 19.6498 62.743C19.4124 61.1606 19.4915 58.6287 21.3113 56.0968C22.7355 54.0397 23.052 53.8814 23.5267 51.5869C22.8937 53.6441 22.419 53.8814 20.9157 55.6221C19.2542 57.521 19.0168 60.3694 19.0168 62.6639C19.0168 63.6133 19.4124 64.721 19.808 65.6705C20.2036 66.6991 20.5992 67.8067 21.1531 68.598C22.0234 69.8639 23.1311 70.6551 23.685 70.7342V70.6551C24.7135 69.4683 25.3465 68.3606 25.5839 67.1738C25.8212 65.7496 25.9003 64.4045 26.0586 62.743C26.2168 61.3188 26.1377 59.499 25.7421 57.6001C25.2674 55.2265 24.397 52.7737 24.0014 51.0331Z" fill="#010101"/>
        <path d="M24.3179 27.6924C24.397 30.4616 24.5553 35.6045 25.3465 37.6616C25.5839 38.3737 27.5619 41.3803 28.9069 45.099C29.8564 47.6309 30.0938 50.0045 30.252 50.7166C30.885 53.7232 30.0938 58.8661 29.0652 63.6925C28.5113 66.3035 26.6916 69.5474 24.6344 70.8134L24.2388 71.5254C25.4256 71.4463 28.274 68.6771 29.3026 65.1166C31.0432 59.1826 31.6762 56.4133 30.885 49.7672C30.8059 49.1342 30.4894 46.9188 29.4608 44.6243C27.9575 41.0638 25.8212 37.6616 25.5839 36.9495C25.03 35.8419 24.397 30.9363 24.3179 27.6924Z" fill="#010101"/>
        <path d="M25.2674 22.6286C25.1092 25.477 25.1092 27.6924 25.5839 29.8286C26.1377 32.1232 29.1443 35.4462 30.4103 39.2441C32.7839 46.5232 32.1509 56.0177 30.4894 63.376C29.8564 65.987 26.8498 69.7848 23.7641 70.9716L25.9795 71.5254C27.1663 71.4463 30.3311 68.5188 31.5971 65.1958C33.5751 59.8946 33.9707 53.6441 33.1795 46.9979C33.1004 46.365 32.0718 40.6682 31.0432 38.2946C29.6191 34.7342 27.3245 32.2023 26.5333 29.9869C25.9004 28.3254 25.663 23.8946 26.0586 23.0242L25.2674 22.6286Z" fill="#010101"/>
        <path d="M41.0916 36.6329C38.7971 34.5757 35.9487 32.8351 32.9421 31.1735C31.5971 30.4614 27.4828 27.2175 28.907 22.6284L18.5421 18.3559L17.83 18.9097C21.3113 25.1603 19.4916 28.4834 17.7509 29.5911C14.2696 31.9647 9.20582 34.9713 6.75307 37.5823C1.92669 42.5669 0.502508 47.3142 0.977234 53.4856C1.45196 61.4769 7.2278 68.123 15.0608 70.734C18.463 71.8417 21.6278 72 25.1092 72C30.7268 72 36.5817 70.4967 40.7751 67.0153C45.285 63.2967 47.896 57.6791 47.896 51.9032C47.896 46.1274 45.4433 40.5889 41.0916 36.6329ZM39.5883 65.8285C35.7114 68.9934 28.7487 71.2088 25.03 71.0505C20.9157 70.8132 16.8806 70.1802 13.3201 68.4395C7.06956 65.4329 2.95526 58.8659 2.63878 53.5648C2.08493 42.7252 7.30692 39.6395 12.1333 35.6834C14.8234 33.468 18.6212 32.3603 20.7575 28.4043C21.1531 27.5339 21.3905 25.635 20.9157 23.657C20.6784 22.9449 19.7289 20.5713 19.3333 20.0174L27.0872 23.4196C26.1377 26.9801 29.0652 30.6988 31.4388 32.0438C33.8125 33.3889 37.5312 35.9208 39.8257 37.9779C43.8609 41.5384 45.918 46.6021 45.918 51.9032C45.918 57.2043 43.7026 62.4263 39.5883 65.8285Z" fill="#010101"/>
    </g>
    <defs>
        <clipPath id="clip0_18_103">
            <rect width="48" height="72" fill="white"/>
        </clipPath>
    </defs>
</svg>
