<svg width="57" height="56" viewBox="0 0 57 56" fill="none"
    xmlns="http://www.w3.org/2000/svg">
    <path d="M21.6441 42.88C20.9774 42.88 20.2974 42.6933 19.6041 42.32C18.9374 41.92 18.6041 41.3467 18.6041 40.6L19.4841 35.72H16.6841C16.1774 35.72 15.7641 35.52 15.4441 35.12C15.1507 34.6933 15.0041 34.1467 15.0041 33.48C15.0041 32.8133 15.1641 32.2533 15.4841 31.8C15.8041 31.3467 16.2174 31.12 16.7241 31.12H20.4041L21.2441 26.8H18.4041C17.8974 26.8 17.4841 26.6 17.1641 26.2C16.8707 25.7733 16.7241 25.2267 16.7241 24.56C16.7241 23.8933 16.8841 23.3333 17.2041 22.88C17.5241 22.4267 17.9374 22.2 18.4441 22.2H22.1641L23.2041 16.76C23.2841 16.36 23.5907 16.0533 24.1241 15.84C24.6574 15.6 25.2174 15.48 25.8041 15.48C26.4974 15.48 27.1374 15.6533 27.7241 16C28.3107 16.32 28.6041 16.9067 28.6041 17.76L27.7641 22.2H31.8841L32.9241 16.76C33.0041 16.36 33.3107 16.0533 33.8441 15.84C34.3774 15.6 34.9374 15.48 35.5241 15.48C36.2174 15.48 36.8574 15.6533 37.4441 16C38.0307 16.32 38.3374 16.9067 38.3641 17.76L37.4841 22.2H40.2841C40.7374 22.2 41.1374 22.4267 41.4841 22.88C41.8307 23.3067 42.0041 23.84 42.0041 24.48C42.0041 25.1467 41.8174 25.7067 41.4441 26.16C41.0974 26.5867 40.6974 26.8 40.2441 26.8H36.6441L35.7641 31.12H38.5641C39.0174 31.12 39.4174 31.3467 39.7641 31.8C40.1374 32.2267 40.3241 32.76 40.3241 33.4C40.3241 34.0933 40.1374 34.6533 39.7641 35.08C39.3907 35.5067 38.9774 35.72 38.5241 35.72H34.8841L33.7641 41.52C33.6841 41.8933 33.3907 42.2133 32.8841 42.48C32.3774 42.7467 31.8707 42.88 31.3641 42.88C30.9374 42.88 30.4841 42.8 30.0041 42.64C29.5241 42.4533 29.1107 42.2 28.7641 41.88C28.4441 41.5333 28.2841 41.1067 28.2841 40.6L29.2041 35.72H25.1641L24.0441 41.52C23.9641 41.8933 23.6574 42.2133 23.1241 42.48C22.6174 42.7467 22.1241 42.88 21.6441 42.88ZM26.0441 31.12H30.1241L30.9641 26.8H26.8841L26.0441 31.12Z" fill="white"/>
    <rect x="2.5" y="2.5" width="52" height="51" rx="5.5" stroke="white" stroke-width="5"/>
</svg>
