<svg width="144" height="18" viewBox="0 0 144 18" fill="none" xmlns="http://www.w3.org/2000/svg">
<path d="M10.75 15.025L8.125 8L6.3 18H2.125L4.5 4.3L0.7 0.425H9.425L11.975 7.65L16.85 0.425H21.15L18.1 18H13.85L15.625 8L10.75 15.025ZM27.1174 0.425H32.7674L33.8424 18H29.2424V14.6H25.6674L24.4924 18H19.7674L27.1174 0.425ZM29.2424 11.6V5.3H28.8674L26.6924 11.6H29.2424ZM35.0596 18L38.1096 0.425H42.4346L39.3596 18H35.0596ZM49.5564 0.425L52.6064 9.525L54.2064 0.425H58.3064L55.2314 18H51.0814L48.2314 9.05L46.5564 18H42.4814L45.5314 0.425H49.5564ZM77.5947 0.425L76.8697 4.85H72.4197C70.9197 5.725 69.1947 7.275 69.1947 9.775C69.1947 12.375 70.0697 13.175 70.8697 13.625H75.1697L74.3947 18H69.7697C66.5447 16.775 64.8947 13.85 64.8947 10.2C64.8947 8.45 65.4697 6.225 66.8697 4.3L63.0697 0.425H77.5947ZM85.4227 18L86.6227 11.05H82.7227L81.4977 18H77.2227L80.2727 0.425H84.5727L83.4227 6.85H87.3477L88.4727 0.425H92.8477L89.7727 18H85.4227ZM98.7971 0.425H104.447L105.522 18H100.922V14.6H97.3471L96.1721 18H91.4471L98.7971 0.425ZM100.922 11.6V5.3H100.547L98.3721 11.6H100.922ZM106.739 18L109.789 0.425H114.114L111.039 18H106.739ZM121.236 0.425L124.286 9.525L125.886 0.425H129.986L126.911 18H122.761L119.911 9.05L118.236 18H114.161L117.211 0.425H121.236ZM129.581 18L130.106 14.9L137.106 4.5H131.981L132.631 0.425H143.281L142.831 3.5L135.731 13.925H140.956L140.331 18H129.581Z" fill="white"/>
</svg>
